General
Complete name                    : Avatar.Featurette.Creating.the.World.of.Pandora.1080P.H264.AAC2.0.mov
Format                           : MPEG-4
Format profile                   : QuickTime
Codec ID                         : qt  
File size                        : 1.54 GiB
Duration                         : 22mn 55s
Overall bit rate                 : 9 597 Kbps
Movie name                       : "Avatar" Featurette: "Creating the World of Pandora"
Performer                        : Yahoo! Movies
Encoded date                     : UTC 2010-01-20 20:41:34
Tagged date                      : UTC 2010-01-20 20:42:17
Writing library                  : Apple QuickTime 7.6.4
Copyright                        : © 2009, Twentieth Century Fox.
com.apple.quicktime.author       : Yahoo! Movies
com.apple.quicktime.player.movie : (Binary)

Video
ID                               : 2
Format                           : AVC
Format/Info                      : Advanced Video Codec
Format profile                   : Main@L4.1
Format settings, CABAC           : No
Format settings, ReFrames        : 2 frames
Codec ID                         : avc1
Codec ID/Info                    : Advanced Video Coding
Duration                         : 22mn 55s
Bit rate mode                    : Variable
Bit rate                         : 9 403 Kbps
Width                            : 1 920 pixels
Height                           : 1 080 pixels
Display aspect ratio             : 16:9
Frame rate mode                  : Constant
Frame rate                       : 29.970 fps
Resolution                       : 8 bits
Colorimetry                      : 4:2:0
Scan type                        : Progressive
Bits/(Pixel*Frame)               : 0.151
Stream size                      : 1.51 GiB (98%)
Language                         : English
Encoded date                     : UTC 2010-01-20 16:09:32
Tagged date                      : UTC 2010-01-20 20:42:17
Color primaries                  : BT.709-5, BT.1361, IEC 61966-2-4, SMPTE RP177
Transfer characteristics         : BT.709-5, BT.1361
Matrix coefficients              : BT.709-5, BT.1361, IEC 61966-2-4 709, SMPTE RP177

Audio
ID                               : 1
Format                           : AAC
Format/Info                      : Advanced Audio Codec
Format version                   : Version 4
Format profile                   : LC
Format settings, SBR             : No
Codec ID                         : 40
Duration                         : 22mn 55s
Bit rate mode                    : Constant
Bit rate                         : 188 Kbps
Nominal bit rate                 : 192 Kbps
Channel(s)                       : 2 channels
Channel positions                : L R
Sampling rate                    : 48.0 KHz
Stream size                      : 30.8 MiB (2%)
Language                         : English
Encoded date                     : UTC 2010-01-20 16:09:32
Tagged date                      : UTC 2010-01-20 20:42:17